<?xml version="1.0" encoding="utf-8"?>
<!-- Uploaded to: SVG Repo, www.svgrepo.com, Generator: SVG Repo Mixer Tools -->
<svg fill="#000000" height="800px" width="800px" version="1.2" baseProfile="tiny" id="Layer_1" xmlns="http://www.w3.org/2000/svg" xmlns:xlink="http://www.w3.org/1999/xlink"
	  viewBox="0 0 256 227" xml:space="preserve">
<path d="M209,208.5v-46h47l-29.6-35.2H246l-30-35.5h19.6l-35.5-42.1l-25.3,30l22.1,26.7h-22l33,39h-62v17h45v44
	c-15.9-1.6-33.7-2.7-53-2.9v-66.1h53l-33-39h22l-34-41h22l-40-47l-40,47h22l-34,40h23l-34,40h53v66.1c-19.2,0.2-37.1,1.2-53,2.8
	l0-43.8h45v-17H48l34-40H59l22.3-25.9L56.1,49.8L21,91.5h19l-30,36h20l-30,35h47v46c-29,4-47,10-47,17h256
	C256,218.6,237.7,212.5,209,208.5z"/>
</svg>